<svg xmlns="http://www.w3.org/2000/svg" viewBox="0 0 160 160" role="img" aria-label="다민, 재킷을 입고 미소 짓는 주선자 일러스트">
 <rect width="160" height="160" fill="#F1E4DE"/>
 <path d="M41 76V58C41 29 57 18 80 18s40 15 40 42v53H40Z" fill="#49372F"/>
 <path d="M19 160v-14c0-23 18-33 45-39h32c29 6 45 16 45 39v14" fill="#7F8883"/>
 <path d="M65 96v20l15 13 15-13V96" fill="#E5AF91"/>
 <path d="M57 111 80 125l24-14-5 49H61Z" fill="#FFFAF3"/>
 <path d="m58 108 22 52H49l-6-27 12-6-8-11Z" fill="#697570"/>
 <path d="m102 108-22 52h31l6-27-12-6 8-11Z" fill="#697570"/>
 <ellipse cx="47" cy="71" rx="7" ry="10" fill="#EFC0A4"/><ellipse cx="113" cy="71" rx="7" ry="10" fill="#EFC0A4"/>
 <path d="M49 53c0-20 62-22 62 0v25c0 23-16 35-31 35S49 99 49 78Z" fill="#F4C9AD"/>
 <path d="M44 62c1-26 10-39 36-39 22 0 38 17 35 37-14-2-28-14-33-22-9 15-22 22-38 24Z" fill="#49372F"/>
 <path d="M58 64q7-4 14-1m16 0q7-3 14 1" fill="none" stroke="#674C3D" stroke-width="2.5" stroke-linecap="round"/>
 <ellipse cx="65" cy="74" rx="3" ry="3.5" fill="#342D29"/><ellipse cx="95" cy="74" rx="3" ry="3.5" fill="#342D29"/>
 <path d="m80 77-2 9h5" fill="none" stroke="#D89F82" stroke-width="2" stroke-linecap="round"/>
 <path d="M69 94q11 10 22 0" fill="#FFF8EF" stroke="#B87569" stroke-width="2" stroke-linejoin="round"/>
 <circle cx="48" cy="87" r="3" fill="#D6B879"/><circle cx="112" cy="87" r="3" fill="#D6B879"/>
</svg>
